<?xml version="1.0" encoding="UTF-8"?>
<svg version="1.1" xmlns="http://www.w3.org/2000/svg" width="250" height="250">
<path d="M0 0 C32.45829193 -0.87725113 61.90929776 10.83366808 85.58203125 32.8046875 C106.3440209 52.93246847 120.51205758 80.7283715 121.3125 110.015625 C121.60430506 146.27301625 111.31030716 175.98176485 86.19921875 202.41015625 C71.9279063 216.12048944 54.03602136 225.92693385 35.01171875 231.16015625 C33.95082031 231.47855469 32.88992187 231.79695312 31.796875 232.125 C6.7769073 238.4602777 -21.76501949 235.08725867 -44.98828125 224.16015625 C-45.60509766 223.87156738 -46.22191406 223.58297852 -46.85742188 223.28564453 C-75.39933701 209.69810563 -96.15929604 185.26860607 -106.87207031 155.72265625 C-117.0399418 125.18086454 -114.2687477 92.72017043 -100.23828125 63.91015625 C-86.51094648 37.19175616 -62.87158024 16.22262274 -34.42578125 6.34765625 C-23.08764322 2.82524307 -11.83602899 0.63434927 0 0 Z " fill="#3E6577" transform="translate(119.98828125,6.83984375)"/>
<path d="M0 0 C2.56616632 3.84924948 2.55097676 6.4349304 3 11 C5.64 11 8.28 11 11 11 C11.268125 10.071875 11.53625 9.14375 11.8125 8.1875 C13 5 13 5 16 2 C16 5.63 16 9.26 16 13 C17.65 13.33 19.3 13.66 21 14 C21.99 14.33 22.98 14.66 24 15 C24.37125 14.13375 24.37125 14.13375 24.75 13.25 C26.16683317 10.6997003 27.87627537 8.98214299 30 7 C29.34 10.63 28.68 14.26 28 18 C32.78570443 20.25114568 32.78570443 20.25114568 37 19 C39.02951535 17.71203834 41.03501678 16.38442 43 15 C42.5359375 16.0828125 42.5359375 16.0828125 42.0625 17.1875 C41.07439461 19.80307309 40.4712246 22.25118982 40 25 C41.65 26.32 43.3 27.64 45 29 C47.97 27.68 50.94 26.36 54 25 C52 29 52 29 50.3125 31 C48.76623846 32.88522899 48.76623846 32.88522899 49.25 35 C49.4975 35.66 49.745 36.32 50 37 C50.495 38.98 50.495 38.98 51 41 C54.3 40.34 57.6 39.68 61 39 C60.195625 39.763125 59.39125 40.52625 58.5625 41.3125 C55.83200976 43.79430898 55.83200976 43.79430898 55 47 C55.27571139 49.00875442 55.60235737 51.01178687 56 53 C59.63 53 63.26 53 67 53 C64.3144406 55.6855594 61.62378672 56.06049974 58 57 C58 59.97 58 62.94 58 66 C59.9490625 66.185625 59.9490625 66.185625 61.9375 66.375 C64.15234375 66.5859375 64.15234375 66.5859375 66 67 C66.33 67.66 66.66 68.32 67 69 C64.36 69.66 61.72 70.32 59 71 C59 73.64 59 76.28 59 79 C61.64 80.32 64.28 81.64 67 83 C67 83.33 67 83.66 67 84 C63.37 84 59.74 84 56 84 C55.67 86.64 55.34 89.28 55 92 C55.5053125 92.34933594 56.010625 92.69867188 56.53125 93.05859375 C57.1809375 93.51363281 57.830625 93.96867187 58.5 94.4375 C59.1496875 94.88996094 59.799375 95.34242188 60.46875 95.80859375 C60.9740625 96.20175781 61.479375 96.59492188 62 97 C62 97.33 62 97.66 62 98 C57.91281305 98.24042276 54.82320557 97.42258812 51 96 C49.40983699 99.32701122 49.40983699 99.32701122 49.125 102.9375 C50.37731629 105.88938839 52.15849446 108.3862502 54 111 C52.6696875 110.5359375 52.6696875 110.5359375 51.3125 110.0625 C48.53290845 109.1709329 45.86863625 108.50622993 43 108 C42.34 108.99 41.68 109.98 41 111 C40.34 111 39.68 111 39 111 C39.30035156 111.62648438 39.60070312 112.25296875 39.91015625 112.8984375 C40.29042969 113.71570313 40.67070312 114.53296875 41.0625 115.375 C41.44535156 116.18710938 41.82820313 116.99921875 42.22265625 117.8359375 C42.47917969 118.55007812 42.73570312 119.26421875 43 120 C42.67 120.66 42.34 121.32 42 122 C41.113125 121.154375 40.22625 120.30875 39.3125 119.4375 C36.72076911 117.22331853 36.72076911 117.22331853 33.3125 117.125 C32.549375 117.41375 31.78625 117.7025 31 118 C29.515 118.495 29.515 118.495 28 119 C28.495 123.455 28.495 123.455 29 128 C28.01 126.7315625 28.01 126.7315625 27 125.4375 C24.3696504 122.81089794 24.3696504 122.81089794 21.88671875 122.890625 C19.90788716 123.15774969 17.95000525 123.57033783 16 124 C16 127.63 16 131.26 16 135 C12.75267068 133.37633534 12.29844864 130.24612161 11 127 C8.36 127 5.72 127 3 127 C2.01 130.96 2.01 130.96 1 135 C0.34 134.67 -0.32 134.34 -1 134 C-1.59355614 131.35139573 -1.74209269 128.70802678 -2 126 C-4.97 126 -7.94 126 -11 126 C-11.99 128.97 -12.98 131.94 -14 135 C-14.33 135 -14.66 135 -15 135 C-15 131.37 -15 127.74 -15 124 C-18.98970552 123.03002864 -18.98970552 123.03002864 -23 123 C-25.29259828 124.76982052 -26.387443 126.53077209 -28 129 C-29.31223496 125.06329512 -28.24296256 122.87511856 -27 119 C-29.69187487 117.69251792 -31.54825956 116.97796388 -34.5625 117.125 C-37.50425372 118.18101415 -38.96601893 119.6646884 -41 122 C-41.66 121.67 -42.32 121.34 -43 121 C-41.68 118.03 -40.36 115.06 -39 112 C-40.66545339 109.83358335 -40.66545339 109.83358335 -43 108 C-45.53951544 108.09111938 -45.53951544 108.09111938 -48 109 C-48.763125 109.185625 -49.52625 109.37125 -50.3125 109.5625 C-50.869375 109.706875 -51.42625 109.85125 -52 110 C-51.525625 109.2575 -51.05125 108.515 -50.5625 107.75 C-48.71858944 104.53561822 -48.71858944 104.53561822 -48 101 C-48.66 99.35 -49.32 97.7 -50 96 C-55.445 96.99 -55.445 96.99 -61 98 C-56.375 93.125 -56.375 93.125 -53 92 C-53.495 91.13375 -53.495 91.13375 -54 90.25 C-55 88 -55 88 -55 84 C-58.63 84 -62.26 84 -66 84 C-62.89448334 80.89448334 -61.10801767 80.18676066 -57 79 C-57 76.36 -57 73.72 -57 71 C-60.63 70.34 -64.26 69.68 -68 69 C-64.99382731 65.99382731 -62.17618402 66.40414684 -58 66 C-58 63.36 -58 60.72 -58 58 C-60.64 56.68 -63.28 55.36 -66 54 C-66 53.67 -66 53.34 -66 53 C-62.37 53 -58.74 53 -55 53 C-54.03002864 49.01029448 -54.03002864 49.01029448 -54 45 C-55.76982052 42.70740172 -57.53077209 41.612557 -60 40 C-56.7169902 38.3584951 -53.57454967 39.48111376 -50 40 C-48.5205946 36.87222639 -48.5205946 36.87222639 -48 33 C-49.29477013 30.3279246 -51.01295462 28.19375144 -53 26 C-49.59702663 26.82115227 -46.31395777 27.87024167 -43 29 C-41.68 27.68 -40.36 26.36 -39 25 C-39.4640625 23.63875 -39.4640625 23.63875 -39.9375 22.25 C-40.72830753 19.83105932 -41.40446106 17.46799921 -42 15 C-41.57589844 15.38414063 -41.15179688 15.76828125 -40.71484375 16.1640625 C-38.85171791 17.69551099 -37.17401474 18.94656815 -35 20 C-31.12777361 19.4794054 -31.12777361 19.4794054 -28 18 C-28.33 14.7 -28.66 11.4 -29 8 C-28.236875 8.804375 -27.47375 9.60875 -26.6875 10.4375 C-24.20569102 13.16799024 -24.20569102 13.16799024 -21 14 C-18.99124558 13.72428861 -16.98821313 13.39764263 -15 13 C-15 9.37 -15 5.74 -15 2 C-11.75267068 3.62366466 -11.29844864 6.75387839 -10 10 C-7.36 10 -4.72 10 -2 10 C-1.34 6.7 -0.68 3.4 0 0 Z " fill="#000000" transform="translate(124,56)"/>
<path d="M0 0 C0.05088279 7.11666802 0.08581026 14.23328876 0.10986328 21.35009766 C0.1198951 23.7690608 0.13352371 26.1880119 0.15087891 28.60693359 C0.17525107 32.09215273 0.18651158 35.57721093 0.1953125 39.0625 C0.20563507 40.13677246 0.21595764 41.21104492 0.22659302 42.31787109 C0.22747014 48.24297793 -0.27670281 53.32325631 -2 59 C-4.64 59.33 -7.28 59.66 -10 60 C-11.32 57.36 -12.64 54.72 -14 52 C-14.495 56.95 -14.495 56.95 -15 62 C-20.19689119 63.84974093 -20.19689119 63.84974093 -23 64 C-26 61.625 -26 61.625 -28 59 C-27.896875 60.258125 -27.79375 61.51625 -27.6875 62.8125 C-27.6875 65.01171875 -27.6875 65.01171875 -28 67 C-30.1875 69.125 -30.1875 69.125 -33 70 C-36.52345194 69.16108287 -38.6479831 67.72338799 -41 65 C-40.5359375 66.11375 -40.5359375 66.11375 -40.0625 67.25 C-39.711875 68.1575 -39.36125 69.065 -39 70 C-38.690625 70.66 -38.38125 71.32 -38.0625 72 C-38 74 -38 74 -40.4375 76.75 C-41.283125 77.4925 -42.12875 78.235 -43 79 C-43.94875 78.67 -44.8975 78.34 -45.875 78 C-48.77062452 76.89840809 -48.77062452 76.89840809 -51 77 C-49.68 78.65 -48.36 80.3 -47 82 C-48.875 86.75 -48.875 86.75 -50 89 C-52.97 89 -55.94 89 -59 89 C-57.02 90.65 -55.04 92.3 -53 94 C-53.66 96.64 -54.32 99.28 -55 102 C-59.455 102.495 -59.455 102.495 -64 103 C-61.69 104.32 -59.38 105.64 -57 107 C-57.33 109.64 -57.66 112.28 -58 115 C-61.96 115.99 -61.96 115.99 -66 117 C-63.03 117.99 -60.06 118.98 -57 120 C-57 122.64 -57 125.28 -57 128 C-60.96 129.98 -60.96 129.98 -65 132 C-61.7 132.33 -58.4 132.66 -55 133 C-53.74335022 135.90600261 -53 137.79604584 -53 141 C-54.53125 142.38671875 -54.53125 142.38671875 -56.5 143.6875 C-57.655 144.450625 -58.81 145.21375 -60 146 C-56.7 145.67 -53.4 145.34 -50 145 C-46.94533762 149.39871383 -46.94533762 149.39871383 -47.1875 152.0625 C-48.03986879 154.09507174 -48.95914244 156.0570659 -50 158 C-49.4225 157.649375 -48.845 157.29875 -48.25 156.9375 C-46 156 -46 156 -44 156.0625 C-41.15179495 157.39759612 -39.8078171 159.48196904 -38 162 C-39.32 164.64 -40.64 167.28 -42 170 C-40.9275 169.154375 -39.855 168.30875 -38.75 167.4375 C-35.5764963 164.93531439 -35.5764963 164.93531439 -33.015625 165.22265625 C-30.95495555 166.01737179 -28.97543542 167.01228229 -27 168 C-27.33 170.97 -27.66 173.94 -28 177 C-26.35 175.02 -24.7 173.04 -23 171 C-20.36 171.66 -17.72 172.32 -15 173 C-14.505 177.455 -14.505 177.455 -14 182 C-13.01 179.69 -12.02 177.38 -11 175 C-8.03 175 -5.06 175 -2 175 C-1.34 177.64 -0.68 180.28 0 183 C0.99 180.36 1.98 177.72 3 175 C5.64 175 8.28 175 11 175 C12.32 177.64 13.64 180.28 15 183 C15.33 179.7 15.66 176.4 16 173 C18.49219084 171.82313211 20.34350674 170.96138275 23.125 171.125 C25.56127046 172.26192622 26.56092073 173.76942713 28 176 C27.896875 174.741875 27.79375 173.48375 27.6875 172.1875 C27.68359375 169.984375 27.68359375 169.984375 28 168 C30.37626695 165.8217553 31.75364302 164.96105134 35 165.0625 C37.68630914 166.32170741 39.76045038 168.07149894 42 170 C41.505 168.906875 41.01 167.81375 40.5 166.6875 C39 163 39 163 39 160 C39.66 160 40.32 160 41 160 C41.66 158.68 42.32 157.36 43 156 C46.02419525 156.58803797 49.01758453 157.22678118 52 158 C51.319375 157.278125 50.63875 156.55625 49.9375 155.8125 C48 153 48 153 48.125 150.375 C49 148 49 148 51 145 C53.4375 144.8125 53.4375 144.8125 56 145 C56.99 145 57.98 145 59 145 C57.35 143.68 55.7 142.36 54 141 C54.875 135.25 54.875 135.25 56 133 C58.28515625 132.5859375 58.28515625 132.5859375 61.0625 132.375 C62.44115234 132.26285156 62.44115234 132.26285156 63.84765625 132.1484375 C64.55792969 132.09945312 65.26820313 132.05046875 66 132 C62.04 130.02 62.04 130.02 58 128 C58 125.36 58 122.72 58 120 C61.96 118.515 61.96 118.515 66 117 C62.04 116.01 62.04 116.01 58 115 C58 112.03 58 109.06 58 106 C60.31 105.01 62.62 104.02 65 103 C62.03 102.67 59.06 102.34 56 102 C55.01 98.04 55.01 98.04 54 94 C55.98 92.35 57.96 90.7 60 89 C55.545 89.495 55.545 89.495 51 90 C50.67 88.68 50.34 87.36 50 86 C58.98401919 82.69009819 68.58732273 81.52026059 78 80 C74.01532019 84.17037363 69.71457281 87.74671933 65.1875 91.3125 C62.815625 93.189375 60.44375 95.06625 58 97 C70.87 97.495 70.87 97.495 84 98 C81.01110675 100.24166994 78.74644614 101.72631903 75.453125 103.26171875 C74.60878906 103.65810547 73.76445312 104.05449219 72.89453125 104.46289062 C72.02183594 104.86701172 71.14914063 105.27113281 70.25 105.6875 C69.36183594 106.10322266 68.47367188 106.51894531 67.55859375 106.94726562 C65.37427709 107.96896213 63.18807292 108.98637935 61 110 C61.80836304 110.21148682 61.80836304 110.21148682 62.63305664 110.42724609 C65.10974866 111.07569489 67.58612556 111.7253395 70.0625 112.375 C70.91005859 112.59671875 71.75761719 112.8184375 72.63085938 113.046875 C77.43799784 114.30898085 82.22704845 115.61409548 87 117 C83.98000074 118.65791796 81.15585285 119.54696274 77.796875 120.2890625 C76.8171875 120.50820312 75.8375 120.72734375 74.828125 120.953125 C73.81234375 121.17484375 72.7965625 121.3965625 71.75 121.625 C70.71875 121.85445313 69.6875 122.08390625 68.625 122.3203125 C66.08433366 122.88490502 63.54269297 123.44461898 61 124 C63.68566588 125.44101533 66.37342059 126.87787947 69.0625 128.3125 C70.19075195 128.91868164 70.19075195 128.91868164 71.34179688 129.53710938 C75.82010163 131.92166126 80.30583659 134.07370984 85 136 C85 136.33 85 136.66 85 137 C71.635 137.495 71.635 137.495 58 138 C63.08337972 142.10071469 63.08337972 142.10071469 68.17089844 146.19628906 C71.61835938 148.98725619 74.95421136 151.76184576 78 155 C68.85902974 153.52814886 59.95504804 151.31460464 51 149 C59.29037765 159.6715359 59.29037765 159.6715359 68 170 C67.67 170.66 67.34 171.32 67 172 C59 168 51 164 43 160 C44.43641085 163.04218216 45.87432554 166.08365123 47.3125 169.125 C47.91868164 170.40890625 47.91868164 170.40890625 48.53710938 171.71875 C50.64353022 176.17134691 52.77410818 180.60584463 55 185 C52.06703694 183.64538768 49.70138703 182.08837746 47.21484375 180.03125 C46.17166992 179.17466797 46.17166992 179.17466797 45.10742188 178.30078125 C44.39134766 177.70652344 43.67527344 177.11226562 42.9375 176.5 C41.51006754 175.32176121 40.08171787 174.14463252 38.65234375 172.96875 C37.70862915 172.18661133 37.70862915 172.18661133 36.74584961 171.38867188 C35.22457759 170.17863199 33.61736218 169.07824146 32 168 C32.18699463 168.74685059 32.37398926 169.49370117 32.56665039 170.26318359 C33.40584584 173.6320326 34.23429895 177.0034321 35.0625 180.375 C35.50432617 182.1384375 35.50432617 182.1384375 35.95507812 183.9375 C36.22900391 185.05898437 36.50292969 186.18046875 36.78515625 187.3359375 C37.04176025 188.37282715 37.29836426 189.4097168 37.56274414 190.47802734 C38 193 38 193 37 195 C34.7060326 192.23106429 32.41522881 189.45952842 30.125 186.6875 C29.47402344 185.90181641 28.82304687 185.11613281 28.15234375 184.30664062 C27.52714844 183.54931641 26.90195313 182.79199219 26.2578125 182.01171875 C25.6817627 181.31522217 25.10571289 180.61872559 24.51220703 179.90112305 C23 178 23 178 21 175 C20.67 183.91 20.34 192.82 20 202 C17.7596051 199.0128068 16.29371077 196.78036642 14.7734375 193.48828125 C14.3815625 192.64845703 13.9896875 191.80863281 13.5859375 190.94335938 C13.18632812 190.07517578 12.78671875 189.20699219 12.375 188.3125 C11.57217999 186.57856121 10.76758737 184.84544166 9.9609375 183.11328125 C9.60821777 182.34798096 9.25549805 181.58268066 8.89208984 180.79418945 C8.13120402 179.02508855 8.13120402 179.02508855 7 178 C4.03 190.87 4.03 190.87 1 204 C-1.38006093 201.61993907 -1.55641734 200.31569794 -2.25390625 197.0625 C-2.57584961 195.59683594 -2.57584961 195.59683594 -2.90429688 194.1015625 C-3.12150391 193.07804688 -3.33871094 192.05453125 -3.5625 191 C-3.99909315 188.97868828 -4.43779201 186.95782989 -4.87890625 184.9375 C-5.0704126 184.03902344 -5.26191895 183.14054688 -5.45922852 182.21484375 C-5.91846155 179.97782521 -5.91846155 179.97782521 -7 178 C-10.63 185.59 -14.26 193.18 -18 201 C-18.33 201 -18.66 201 -19 201 C-19.495 188.13 -19.495 188.13 -20 175 C-24.47405815 180.45814711 -24.47405815 180.45814711 -28.94458008 185.91918945 C-29.50556396 186.60198975 -30.06654785 187.28479004 -30.64453125 187.98828125 C-31.50075073 189.03302612 -31.50075073 189.03302612 -32.37426758 190.09887695 C-33.84712941 191.82123393 -35.37269249 193.42442147 -37 195 C-35.63948216 186.26067362 -33.91580102 177.63387662 -32 169 C-38.91731823 174.0842289 -45.6589467 179.19980125 -52 185 C-52.66 184.67 -53.32 184.34 -54 184 C-52.3788196 180.56068587 -50.75240216 177.12387397 -49.125 173.6875 C-48.66480469 172.71103516 -48.20460938 171.73457031 -47.73046875 170.72851562 C-47.28574219 169.79072266 -46.84101562 168.85292969 -46.3828125 167.88671875 C-45.97434082 167.02264404 -45.56586914 166.15856934 -45.14501953 165.26831055 C-44 163 -44 163 -42 160 C-42.68626465 160.33845947 -43.3725293 160.67691895 -44.07958984 161.02563477 C-47.17409924 162.54614485 -50.27440153 164.05444825 -53.375 165.5625 C-54.99535156 166.36204102 -54.99535156 166.36204102 -56.6484375 167.17773438 C-57.6796875 167.67724609 -58.7109375 168.17675781 -59.7734375 168.69140625 C-60.72653809 169.15748291 -61.67963867 169.62355957 -62.66162109 170.10375977 C-63.43328613 170.39951904 -64.20495117 170.69527832 -65 171 C-65.66 170.67 -66.32 170.34 -67 170 C-66.58637207 169.50072998 -66.17274414 169.00145996 -65.74658203 168.48706055 C-63.87124768 166.22175566 -61.99810255 163.95465055 -60.125 161.6875 C-59.47402344 160.90181641 -58.82304688 160.11613281 -58.15234375 159.30664062 C-57.52714844 158.54931641 -56.90195313 157.79199219 -56.2578125 157.01171875 C-55.39373779 155.96697388 -55.39373779 155.96697388 -54.51220703 154.90112305 C-52.85049758 152.86657946 -52.85049758 152.86657946 -51 150 C-52.27875 150.27714844 -53.5575 150.55429688 -54.875 150.83984375 C-56.58329523 151.20590701 -58.29163073 151.57178243 -60 151.9375 C-61.25876953 152.21110352 -61.25876953 152.21110352 -62.54296875 152.49023438 C-67.68642831 153.58670831 -72.77201659 154.42516386 -78 155 C-74.59463854 151.3983395 -70.84071617 148.40678162 -66.9375 145.375 C-66.31294922 144.88515625 -65.68839844 144.3953125 -65.04492188 143.890625 C-62.40570219 141.82882264 -59.78975377 139.85983585 -57 138 C-65.91 137.67 -74.82 137.34 -84 137 C-81.04310734 134.78233051 -78.77368544 133.2789029 -75.5234375 131.73828125 C-74.27046875 131.14370117 -74.27046875 131.14370117 -72.9921875 130.53710938 C-72.12851563 130.13298828 -71.26484375 129.72886719 -70.375 129.3125 C-69.50359375 128.89677734 -68.6321875 128.48105469 -67.734375 128.05273438 C-61.25796644 125 -61.25796644 125 -59 125 C-59 124.34 -59 123.68 -59 123 C-59.94875 123.061875 -60.8975 123.12375 -61.875 123.1875 C-65.89393457 123.19558639 -69.30101482 122.14010166 -73.08203125 120.8515625 C-82.71221638 118.04114703 -92.16542811 117.59459552 -102.125 117.375 C-103.57293772 117.33672566 -105.02085497 117.29766882 -106.46875 117.2578125 C-109.97897702 117.16286386 -113.48936132 117.07846785 -117 117 C-115.82567682 82.36950354 -102.87510728 53.56237961 -77.828125 29.484375 C-56.90354699 10.02598364 -28.35933105 -0.05991262 0 0 Z " fill="#603813" transform="translate(124,7)"/>
<path d="M0 0 C-2.58231388 2.10542027 -5.16603004 4.20911269 -7.75 6.3125 C-8.47960937 6.90740234 -9.20921875 7.50230469 -9.9609375 8.11523438 C-10.66992188 8.69208984 -11.37890625 9.26894531 -12.109375 9.86328125 C-12.75874023 10.39219971 -13.40810547 10.92111816 -14.07714844 11.46606445 C-16.02079058 13.01658548 -18.01093224 14.50819918 -20 16 C-7.13 16.495 -7.13 16.495 6 17 C3.01110675 19.24166994 0.74644614 20.72631903 -2.546875 22.26171875 C-3.81337891 22.85629883 -3.81337891 22.85629883 -5.10546875 23.46289062 C-5.97816406 23.86701172 -6.85085937 24.27113281 -7.75 24.6875 C-8.63816406 25.10322266 -9.52632812 25.51894531 -10.44140625 25.94726562 C-12.62572291 26.96896213 -14.81192708 27.98637935 -17 29 C-16.19163696 29.21148682 -16.19163696 29.21148682 -15.36694336 29.42724609 C-12.89025134 30.07569489 -10.41387444 30.7253395 -7.9375 31.375 C-6.66616211 31.70757812 -6.66616211 31.70757812 -5.36914062 32.046875 C-0.56200216 33.30898085 4.22704845 34.61409548 9 36 C5.98000074 37.65791796 3.15585285 38.54696274 -0.203125 39.2890625 C-1.1828125 39.50820312 -2.1625 39.72734375 -3.171875 39.953125 C-4.18765625 40.17484375 -5.2034375 40.3965625 -6.25 40.625 C-7.796875 40.96917969 -7.796875 40.96917969 -9.375 41.3203125 C-11.91566634 41.88490502 -14.45730703 42.44461898 -17 43 C-14.31433412 44.44101533 -11.62657941 45.87787947 -8.9375 47.3125 C-8.18533203 47.71662109 -7.43316406 48.12074219 -6.65820312 48.53710938 C-2.17989837 50.92166126 2.30583659 53.07370984 7 55 C7 55.33 7 55.66 7 56 C-6.365 56.495 -6.365 56.495 -20 57 C-14.91662028 61.10071469 -14.91662028 61.10071469 -9.82910156 65.19628906 C-6.38164062 67.98725619 -3.04578864 70.76184576 0 74 C-9.14097026 72.52814886 -18.04495196 70.31460464 -27 68 C-18.70962235 78.6715359 -18.70962235 78.6715359 -10 89 C-10.33 89.66 -10.66 90.32 -11 91 C-19 87 -27 83 -35 79 C-33.56358915 82.04218216 -32.12567446 85.08365123 -30.6875 88.125 C-30.28337891 88.9809375 -29.87925781 89.836875 -29.46289062 90.71875 C-27.35646978 95.17134691 -25.22589182 99.60584463 -23 104 C-25.93296306 102.64538768 -28.29861297 101.08837746 -30.78515625 99.03125 C-31.48060547 98.46019531 -32.17605469 97.88914062 -32.89257812 97.30078125 C-33.60865234 96.70652344 -34.32472656 96.11226563 -35.0625 95.5 C-36.48993246 94.32176121 -37.91828213 93.14463252 -39.34765625 91.96875 C-39.97679932 91.44732422 -40.60594238 90.92589844 -41.25415039 90.38867188 C-42.77542241 89.17863199 -44.38263782 88.07824146 -46 87 C-45.71950806 88.12027588 -45.71950806 88.12027588 -45.43334961 89.26318359 C-44.59415416 92.6320326 -43.76570105 96.0034321 -42.9375 99.375 C-42.64294922 100.550625 -42.34839844 101.72625 -42.04492188 102.9375 C-41.77099609 104.05898437 -41.49707031 105.18046875 -41.21484375 106.3359375 C-40.82993774 107.89127197 -40.82993774 107.89127197 -40.43725586 109.47802734 C-40 112 -40 112 -41 114 C-43.2939674 111.23106429 -45.58477119 108.45952842 -47.875 105.6875 C-48.52597656 104.90181641 -49.17695313 104.11613281 -49.84765625 103.30664062 C-50.78544922 102.1706543 -50.78544922 102.1706543 -51.7421875 101.01171875 C-52.3182373 100.31522217 -52.89428711 99.61872559 -53.48779297 98.90112305 C-55 97 -55 97 -57 94 C-57.33 102.91 -57.66 111.82 -58 121 C-60.2403949 118.0128068 -61.70628923 115.78036642 -63.2265625 112.48828125 C-63.6184375 111.64845703 -64.0103125 110.80863281 -64.4140625 109.94335938 C-64.81367188 109.07517578 -65.21328125 108.20699219 -65.625 107.3125 C-66.42782001 105.57856121 -67.23241263 103.84544166 -68.0390625 102.11328125 C-68.39178223 101.34798096 -68.74450195 100.58268066 -69.10791016 99.79418945 C-69.86879598 98.02508855 -69.86879598 98.02508855 -71 97 C-72.98 105.58 -74.96 114.16 -77 123 C-79.38006093 120.61993907 -79.55641734 119.31569794 -80.25390625 116.0625 C-80.57584961 114.59683594 -80.57584961 114.59683594 -80.90429688 113.1015625 C-81.23010742 111.56628906 -81.23010742 111.56628906 -81.5625 110 C-81.99909315 107.97868828 -82.43779201 105.95782989 -82.87890625 103.9375 C-83.0704126 103.03902344 -83.26191895 102.14054687 -83.45922852 101.21484375 C-83.91846155 98.97782521 -83.91846155 98.97782521 -85 97 C-88.63 104.59 -92.26 112.18 -96 120 C-96.33 120 -96.66 120 -97 120 C-97.495 107.13 -97.495 107.13 -98 94 C-102.47405815 99.45814711 -102.47405815 99.45814711 -106.94458008 104.91918945 C-107.50556396 105.60198975 -108.06654785 106.28479004 -108.64453125 106.98828125 C-109.21534424 107.68477783 -109.78615723 108.38127441 -110.37426758 109.09887695 C-111.84712941 110.82123393 -113.37269249 112.42442147 -115 114 C-113.63948216 105.26067362 -111.91580102 96.63387662 -110 88 C-116.91731823 93.0842289 -123.6589467 98.19980125 -130 104 C-130.99 103.505 -130.99 103.505 -132 103 C-130.3788196 99.56068587 -128.75240216 96.12387397 -127.125 92.6875 C-126.43470703 91.22280273 -126.43470703 91.22280273 -125.73046875 89.72851562 C-125.28574219 88.79072266 -124.84101562 87.85292969 -124.3828125 86.88671875 C-123.77010498 85.59060669 -123.77010498 85.59060669 -123.14501953 84.26831055 C-122 82 -122 82 -120 79 C-120.68626465 79.33845947 -121.3725293 79.67691895 -122.07958984 80.02563477 C-125.17409924 81.54614485 -128.27440153 83.05444825 -131.375 84.5625 C-132.45523438 85.09552734 -133.53546875 85.62855469 -134.6484375 86.17773438 C-135.6796875 86.67724609 -136.7109375 87.17675781 -137.7734375 87.69140625 C-139.20308838 88.39052124 -139.20308838 88.39052124 -140.66162109 89.10375977 C-141.81911865 89.54739868 -141.81911865 89.54739868 -143 90 C-143.66 89.67 -144.32 89.34 -145 89 C-144.58637207 88.50072998 -144.17274414 88.00145996 -143.74658203 87.48706055 C-141.87124768 85.22175566 -139.99810255 82.95465055 -138.125 80.6875 C-137.47402344 79.90181641 -136.82304687 79.11613281 -136.15234375 78.30664062 C-135.52714844 77.54931641 -134.90195313 76.79199219 -134.2578125 76.01171875 C-133.6817627 75.31522217 -133.10571289 74.61872559 -132.51220703 73.90112305 C-130.85049758 71.86657946 -130.85049758 71.86657946 -129 69 C-130.918125 69.41572266 -130.918125 69.41572266 -132.875 69.83984375 C-134.58329523 70.20590701 -136.29163073 70.57178243 -138 70.9375 C-139.25876953 71.21110352 -139.25876953 71.21110352 -140.54296875 71.49023438 C-145.68642831 72.58670831 -150.77201659 73.42516386 -156 74 C-152.59463854 70.3983395 -148.84071617 67.40678162 -144.9375 64.375 C-144.31294922 63.88515625 -143.68839844 63.3953125 -143.04492188 62.890625 C-140.40570219 60.82882264 -137.78975377 58.85983585 -135 57 C-143.91 56.67 -152.82 56.34 -162 56 C-159.04310734 53.78233051 -156.77368544 52.2789029 -153.5234375 50.73828125 C-152.688125 50.34189453 -151.8528125 49.94550781 -150.9921875 49.53710938 C-150.12851563 49.13298828 -149.26484375 48.72886719 -148.375 48.3125 C-147.50359375 47.89677734 -146.6321875 47.48105469 -145.734375 47.05273438 C-139.25796644 44 -139.25796644 44 -137 44 C-137 43.34 -137 42.68 -137 42 C-138.423125 42.0928125 -138.423125 42.0928125 -139.875 42.1875 C-143.98696435 42.19577357 -147.47105629 41.05978437 -151.35546875 39.80078125 C-155.50531841 38.5441798 -159.73735962 37.77090305 -164 37 C-164 36.67 -164 36.34 -164 36 C-153.90240732 35.7000715 -144.62930511 35.43673291 -135 39 C-135 41.64 -135 44.28 -135 47 C-138.96 48.98 -138.96 48.98 -143 51 C-139.7 51.33 -136.4 51.66 -133 52 C-131.74335022 54.90600261 -131 56.79604584 -131 60 C-132.53125 61.38671875 -132.53125 61.38671875 -134.5 62.6875 C-136.2325 63.8321875 -136.2325 63.8321875 -138 65 C-133.05 64.505 -133.05 64.505 -128 64 C-124.94533762 68.39871383 -124.94533762 68.39871383 -125.1875 71.0625 C-126.03986879 73.09507174 -126.95914244 75.0570659 -128 77 C-127.4225 76.649375 -126.845 76.29875 -126.25 75.9375 C-124 75 -124 75 -122 75.0625 C-119.15179495 76.39759612 -117.8078171 78.48196904 -116 81 C-117.32 83.64 -118.64 86.28 -120 89 C-118.9275 88.154375 -117.855 87.30875 -116.75 86.4375 C-113.5764963 83.93531439 -113.5764963 83.93531439 -111.015625 84.22265625 C-108.95495555 85.01737179 -106.97543542 86.01228229 -105 87 C-105.33 89.97 -105.66 92.94 -106 96 C-104.35 94.02 -102.7 92.04 -101 90 C-98.36 90.66 -95.72 91.32 -93 92 C-92.505 96.455 -92.505 96.455 -92 101 C-91.01 98.69 -90.02 96.38 -89 94 C-86.03 94 -83.06 94 -80 94 C-79.01 97.96 -79.01 97.96 -78 102 C-77.01 99.36 -76.02 96.72 -75 94 C-72.36 94 -69.72 94 -67 94 C-65.68 96.64 -64.36 99.28 -63 102 C-62.67 98.7 -62.34 95.4 -62 92 C-59.50780916 90.82313211 -57.65649326 89.96138275 -54.875 90.125 C-52.43872954 91.26192622 -51.43907927 92.76942713 -50 95 C-50.103125 93.741875 -50.20625 92.48375 -50.3125 91.1875 C-50.31640625 88.984375 -50.31640625 88.984375 -50 87 C-47.62373305 84.8217553 -46.24635698 83.96105134 -43 84.0625 C-40.31369086 85.32170741 -38.23954962 87.07149894 -36 89 C-36.495 87.906875 -36.99 86.81375 -37.5 85.6875 C-39 82 -39 82 -39 79 C-38.34 79 -37.68 79 -37 79 C-36.01 77.02 -36.01 77.02 -35 75 C-31.97580475 75.58803797 -28.98241547 76.22678118 -26 77 C-26.680625 76.278125 -27.36125 75.55625 -28.0625 74.8125 C-30 72 -30 72 -29.875 69.375 C-29 67 -29 67 -27 64 C-24.5625 63.8125 -24.5625 63.8125 -22 64 C-21.01 64 -20.02 64 -19 64 C-20.65 62.68 -22.3 61.36 -24 60 C-23.125 54.25 -23.125 54.25 -22 52 C-19.71484375 51.5859375 -19.71484375 51.5859375 -16.9375 51.375 C-16.01839844 51.30023438 -15.09929687 51.22546875 -14.15234375 51.1484375 C-13.44207031 51.09945312 -12.73179687 51.05046875 -12 51 C-14.64 49.68 -17.28 48.36 -20 47 C-20 44.36 -20 41.72 -20 39 C-17.36 38.01 -14.72 37.02 -12 36 C-14.64 35.34 -17.28 34.68 -20 34 C-20 31.03 -20 28.06 -20 25 C-17.69 24.01 -15.38 23.02 -13 22 C-15.97 21.67 -18.94 21.34 -22 21 C-22.99 17.04 -22.99 17.04 -24 13 C-22.02 11.35 -20.04 9.7 -18 8 C-22.455 8.495 -22.455 8.495 -27 9 C-27.33 7.68 -27.66 6.36 -28 5 C-23.58542433 3.37357739 -19.20851918 2.38161238 -14.6015625 1.51171875 C-11.34385198 0.87093785 -8.12903282 0.08155274 -4.91015625 -0.73046875 C-3 -1 -3 -1 0 0 Z " fill="#224959" transform="translate(202,88)"/>
<path d="M0 0 C-0.44522445 6.12183613 -1.56401304 11.96710034 -2.9375 17.9375 C-3.19225098 19.07433228 -3.19225098 19.07433228 -3.45214844 20.23413086 C-4.75842139 25.75842139 -4.75842139 25.75842139 -7 28 C-7.99 25.36 -8.98 22.72 -10 20 C-10.66 23.3 -11.32 26.6 -12 30 C-14.74224347 28.62887826 -15.09278777 27.07056978 -16.3828125 24.30859375 C-16.82753906 23.36435547 -17.27226563 22.42011719 -17.73046875 21.44726562 C-18.19066406 20.45404297 -18.65085937 19.46082031 -19.125 18.4375 C-19.59292969 17.44041016 -20.06085938 16.44332031 -20.54296875 15.41601562 C-21.70089674 12.94655695 -22.85295219 10.47452655 -24 8 C-24.03758423 9.06528931 -24.03758423 9.06528931 -24.07592773 10.15209961 C-24.19298472 13.41403464 -24.31520746 16.67575722 -24.4375 19.9375 C-24.47681641 21.05447266 -24.51613281 22.17144531 -24.55664062 23.32226562 C-24.79580904 29.59583708 -25.21391779 35.77079389 -26 42 C-30.41954579 37.77370431 -34.26328709 33.17317952 -38.125 28.4375 C-39.05505859 27.30538086 -39.05505859 27.30538086 -40.00390625 26.15039062 C-42.73834656 22.81319735 -45.42910804 19.46563954 -48 16 C-47.19614127 23.80490744 -45.42614955 31.31995393 -43.640625 38.95117188 C-43.41632813 39.94310547 -43.19203125 40.93503906 -42.9609375 41.95703125 C-42.64842041 43.30244995 -42.64842041 43.30244995 -42.32958984 44.67504883 C-42 47 -42 47 -43 50 C-50.66969126 44.00980318 -58.30071912 37.98905896 -65.79296875 31.77734375 C-68.07506357 29.88506864 -68.07506357 29.88506864 -71 28 C-70.53775024 28.87736816 -70.53775024 28.87736816 -70.06616211 29.77246094 C-68.67739853 32.42529139 -67.30733464 35.08734953 -65.9375 37.75 C-65.45216797 38.67039063 -64.96683594 39.59078125 -64.46679688 40.5390625 C-64.01240234 41.42851563 -63.55800781 42.31796875 -63.08984375 43.234375 C-62.66566162 44.05131836 -62.24147949 44.86826172 -61.80444336 45.70996094 C-61 48 -61 48 -62 52 C-64.97 50.02 -67.94 48.04 -71 46 C-70.175 47.27875 -69.35 48.5575 -68.5 49.875 C-66 53.75 -66 53.75 -66 56 C-69.47598164 55.42022443 -72.29104698 54.53478895 -75.42578125 52.93359375 C-76.22177734 52.53076172 -77.01777344 52.12792969 -77.83789062 51.71289062 C-78.65451172 51.29201172 -79.47113281 50.87113281 -80.3125 50.4375 C-81.14845703 50.01275391 -81.98441406 49.58800781 -82.84570312 49.15039062 C-84.89996426 48.1056521 -86.95120292 47.05540238 -89 46 C-88.33355469 46.84820312 -87.66710937 47.69640625 -86.98046875 48.5703125 C-76.99023438 61.28515625 -76.99023438 61.28515625 -67 74 C-70.88536461 75.29512154 -73.0201411 74.51772489 -77.00390625 73.6015625 C-77.68299545 73.44714691 -78.36208466 73.29273132 -79.06175232 73.13363647 C-80.49571951 72.80603444 -81.92881803 72.47460997 -83.36108398 72.13964844 C-85.55596995 71.6265266 -87.75320682 71.12474992 -89.95117188 70.625 C-100.67051667 68.16474167 -100.67051667 68.16474167 -103 67 C-102.55280066 61.50084567 -101.05264079 57.69417352 -98 53.1875 C-97.59773193 52.5800293 -97.19546387 51.97255859 -96.78100586 51.34667969 C-93.00049192 45.76609631 -88.70023267 40.82791301 -84 36 C-83.23042969 35.16855469 -82.46085937 34.33710937 -81.66796875 33.48046875 C-60.96370508 11.70587158 -29.94741973 -0.65103086 0 0 Z " fill="#885E36" transform="translate(124,7)"/>
<path d="M0 0 C2.86232925 1.43116463 4.87996767 2.54727767 7.3125 4.4609375 C7.91320312 4.93273437 8.51390625 5.40453125 9.1328125 5.890625 C9.74898438 6.38046875 10.36515625 6.8703125 11 7.375 C11.61617188 7.85710937 12.23234375 8.33921875 12.8671875 8.8359375 C19.52950084 14.09716348 19.52950084 14.09716348 22 17 C22 17.99 22 18.98 22 20 C19.67575496 21.74700153 17.41935049 23.25692101 14.9375 24.75 C14.21087158 25.19174561 13.48424316 25.63349121 12.7355957 26.08862305 C-5.851497 37.19330732 -24.98218502 43.18793324 -46.72070312 43.18530273 C-48.73068757 43.18747909 -50.74011306 43.20564353 -52.75 43.22460938 C-60.08115688 43.2355623 -66.89097352 42.8550313 -74 41 C-75.28587188 37.14238437 -74.45307071 36.25849212 -72.69140625 32.67578125 C-72.19189453 31.64775391 -71.69238281 30.61972656 -71.17773438 29.56054688 C-70.64470703 28.48869141 -70.11167969 27.41683594 -69.5625 26.3125 C-69.03333984 25.22904297 -68.50417969 24.14558594 -67.95898438 23.02929688 C-66.64806995 20.34841784 -65.32812905 17.67238154 -64 15 C-63.34 15 -62.68 15 -62 15 C-61.67 17.97 -61.34 20.94 -61 24 C-59.02 19.545 -59.02 19.545 -57 15 C-54.61032653 17.38967347 -54.42441813 18.74082226 -53.7109375 22.0078125 C-53.49179688 22.99394531 -53.27265625 23.98007813 -53.046875 24.99609375 C-52.82515625 26.02863281 -52.6034375 27.06117188 -52.375 28.125 C-52.03082031 29.68541016 -52.03082031 29.68541016 -51.6796875 31.27734375 C-51.11318874 33.85019227 -50.55359707 36.42435007 -50 39 C-49.73445313 37.91460937 -49.46890625 36.82921875 -49.1953125 35.7109375 C-48.83866918 34.26559353 -48.4818912 32.82028278 -48.125 31.375 C-47.86396484 30.30572266 -47.86396484 30.30572266 -47.59765625 29.21484375 C-46.57145662 25.07203784 -45.41209271 21.03273322 -44 17 C-43.34 17 -42.68 17 -42 17 C-41.01 19.64 -40.02 22.28 -39 25 C-38.34 21.37 -37.68 17.74 -37 14 C-34.32809029 16.67190971 -33.26583837 18.15058091 -31.73828125 21.44921875 C-31.38032471 22.21322998 -31.02236816 22.97724121 -30.65356445 23.7644043 C-30.21101318 24.72902588 -29.76846191 25.69364746 -29.3125 26.6875 C-27.1778125 31.2971875 -27.1778125 31.2971875 -25 36 C-24.67 24.45 -24.34 12.9 -24 1 C-18.36734694 6.63265306 -18.36734694 6.63265306 -16.3515625 9.015625 C-15.68411011 9.8032019 -15.68411011 9.8032019 -15.00317383 10.60668945 C-14.32097778 11.42012817 -14.32097778 11.42012817 -13.625 12.25 C-13.14893311 12.81485107 -12.67286621 13.37970215 -12.18237305 13.96166992 C-8.3350154 18.54922926 -4.61427554 23.22619579 -1 28 C-1.31045732 26.0830014 -1.62344671 24.16641277 -1.9375 22.25 C-2.19853516 20.64898437 -2.19853516 20.64898437 -2.46484375 19.015625 C-2.93604498 16.12823852 -2.93604498 16.12823852 -3.5625 13.84375 C-4.25820175 10.91186403 -4.05763571 7.99705688 -4 5 C-1.69 6.98 0.62 8.96 3 11 C2.01 7.37 1.02 3.74 0 0 Z " fill="#6FBADC" transform="translate(174,198)"/>
<path d="M0 0 C6.91648491 30.9321675 0.64562335 62.58009959 -15.85644531 89.31103516 C-17.71153634 92.05089846 -19.82516302 94.50847624 -22 97 C-30.21214572 93.52212897 -35.76952616 83.91403261 -41 77 C-40.505 76.01 -40.505 76.01 -40 75 C-36.7 75.99 -33.4 76.98 -30 78 C-31.98 75.69 -33.96 73.38 -36 71 C-29.99088939 70.58075973 -24.71121562 71.88183422 -18.890625 73.34375 C-16.00643809 74.11069663 -16.00643809 74.11069663 -13 74 C-15.62397534 71.83209004 -18.24924827 69.66575802 -20.875 67.5 C-22.0340686 66.54347534 -22.0340686 66.54347534 -23.21655273 65.56762695 C-28.23380495 61.43407443 -33.28511088 57.35488019 -38.41015625 53.35546875 C-39.19712891 52.68451172 -39.19712891 52.68451172 -40 52 C-40 51.67 -40 51.34 -40 51 C-22.675 50.505 -22.675 50.505 -5 50 C-11.86290589 46.7922308 -11.86290589 46.7922308 -18.73217773 43.59814453 C-19.58239502 43.19708496 -20.4326123 42.79602539 -21.30859375 42.3828125 C-22.18314209 41.97434082 -23.05769043 41.56586914 -23.95874023 41.14501953 C-26 40 -26 40 -27 38 C-24.03 37.34 -21.06 36.68 -18 36 C-19.98 35.01 -21.96 34.02 -24 33 C-24 32.34 -24 31.68 -24 31 C-22.91460937 30.73445313 -21.82921875 30.46890625 -20.7109375 30.1953125 C-19.26559353 29.83866918 -17.82028278 29.4818912 -16.375 29.125 C-15.66214844 28.95097656 -14.94929688 28.77695313 -14.21484375 28.59765625 C-10.07203784 27.57145662 -6.03273322 26.41209271 -2 25 C-2.65597168 24.85900879 -3.31194336 24.71801758 -3.98779297 24.57275391 C-6.95191508 23.93116676 -9.91342405 23.27823484 -12.875 22.625 C-14.42380859 22.29242188 -14.42380859 22.29242188 -16.00390625 21.953125 C-16.99003906 21.73398438 -17.97617188 21.51484375 -18.9921875 21.2890625 C-19.90339355 21.09006348 -20.81459961 20.89106445 -21.75341797 20.68603516 C-24 20 -24 20 -26 18 C-22.04 16.515 -22.04 16.515 -18 15 C-19.96822886 13.03177114 -23.34808709 13.33751619 -26 13 C-26 12.34 -26 11.68 -26 11 C-22.2337275 9.15718644 -18.46127425 7.32739574 -14.6875 5.5 C-13.61564453 4.97535156 -12.54378906 4.45070313 -11.43945312 3.91015625 C-10.41142578 3.41386719 -9.38339844 2.91757813 -8.32421875 2.40625 C-7.37635498 1.94541016 -6.42849121 1.48457031 -5.4519043 1.00976562 C-3 0 -3 0 0 0 Z " fill="#70BCDE" transform="translate(239,99)"/>
<path d="M0 0 C-2.31 2.31 -4.62 4.62 -7 7 C-3.37 6.01 0.26 5.02 4 4 C2.53885257 6.92229485 1.41109542 8.92053407 -0.56640625 11.3828125 C-1.05173828 11.99253906 -1.53707031 12.60226563 -2.03710938 13.23046875 C-2.54048828 13.85566406 -3.04386719 14.48085937 -3.5625 15.125 C-7.10524788 19.34757363 -7.10524788 19.34757363 -10 24 C-9.11477661 23.5831897 -9.11477661 23.5831897 -8.21166992 23.15795898 C-5.54157087 21.90763906 -2.86474265 20.67244469 -0.1875 19.4375 C0.74126953 18.99986328 1.67003906 18.56222656 2.62695312 18.11132812 C3.51962891 17.70205078 4.41230469 17.29277344 5.33203125 16.87109375 C6.15421143 16.48880615 6.9763916 16.10651855 7.82348633 15.71264648 C10 15 10 15 13 16 C11.02 18.97 9.04 21.94 7 25 C10.3 23.02 13.6 21.04 17 19 C15.41980408 24.2063297 13.22115005 28.98373311 10.875 33.875 C10.50246094 34.65875 10.12992188 35.4425 9.74609375 36.25 C8.83381003 38.16813499 7.91733016 40.08427329 7 42 C9.86090769 40.66895994 12.22259802 39.16444643 14.671875 37.1796875 C15.33574219 36.64472656 15.99960937 36.10976562 16.68359375 35.55859375 C17.70646484 34.72521484 17.70646484 34.72521484 18.75 33.875 C19.44738281 33.31167969 20.14476562 32.74835938 20.86328125 32.16796875 C22.57821965 30.78192264 24.290324 29.39252792 26 28 C27.15941038 31.47823115 26.70820884 33.45895578 26 37 C26.61875 36.34 27.2375 35.68 27.875 35 C30 33 30 33 32 33 C31.54027069 38.79500887 30.82821924 44.35113263 29.40234375 49.9921875 C28.86901135 52.31238343 28.86901135 52.31238343 29 56 C31.12716655 53.39759636 33.25135281 50.79277604 35.375 48.1875 C35.97828125 47.44951172 36.5815625 46.71152344 37.203125 45.95117188 C37.78320312 45.23896484 38.36328125 44.52675781 38.9609375 43.79296875 C39.49509277 43.1383667 40.02924805 42.48376465 40.57958984 41.80932617 C41.79433102 40.26198226 42.90879469 38.63680796 44 37 C44.66 37.33 45.32 37.66 46 38 C45.505 42.95 45.505 42.95 45 48 C45.804375 46.68 46.60875 45.36 47.4375 44 C48.26149076 42.64781004 49.10887963 41.30892435 50 40 C50.33 40 50.66 40 51 40 C51 48.91 51 57.82 51 67 C29.31286342 67 8.43970393 51.19057907 -6.6875 36.75 C-27 15.80649038 -27 15.80649038 -27 5 C-6.48974008 -1.62243502 -6.48974008 -1.62243502 0 0 Z " fill="#70BBDD" transform="translate(47,170)"/>
<path d="M0 0 C13.56369944 0.93221302 29.43228783 18.37488032 38 28 C49.29698086 41.73649917 61 59.85517585 61 78 C52.09 78 43.18 78 34 78 C38 74 38 74 42 72 C38.37 72 34.74 72 31 72 C34.83228898 67.99185072 38.92522322 64.57171247 43.3125 61.1875 C43.95767578 60.68541016 44.60285156 60.18332031 45.26757812 59.66601562 C46.84267125 58.44094319 48.42100316 57.2200368 50 56 C45.7180529 56.50031171 41.5590334 57.00473875 37.375 58.0625 C33.84864355 58.8875574 30.63840796 59.18658502 27 59 C28.15173355 56.53199953 29.04783565 54.95216435 31 53 C26.545 53.495 26.545 53.495 22 54 C25.0142632 49.33506886 28.29379659 44.97020061 31.75 40.625 C32.25660156 39.98433594 32.76320312 39.34367187 33.28515625 38.68359375 C34.52140638 37.12078698 35.76041713 35.56016464 37 34 C30.23373799 36.54483306 23.85138732 39.52883639 17.46875 42.92578125 C16.6540625 43.28027344 15.839375 43.63476562 15 44 C14.34 43.67 13.68 43.34 13 43 C15.97 38.545 15.97 38.545 19 34 C17.72125 34.825 16.4425 35.65 15.125 36.5 C11.25 39 11.25 39 9 39 C10.51789078 33.94566211 12.66800878 29.42761076 15.0625 24.75 C15.42666016 24.03070313 15.79082031 23.31140625 16.16601562 22.5703125 C17.10741083 20.71188352 18.05338737 18.85577685 19 17 C19.33 16.34 19.66 15.68 20 15 C17.79077517 16.7280375 15.58260494 18.45739512 13.375 20.1875 C12.75753906 20.67025391 12.14007813 21.15300781 11.50390625 21.65039062 C8.50571976 24.00160003 5.55064644 26.37590572 2.6640625 28.86328125 C0 31 0 31 -2 31 C-0.515 25.555 -0.515 25.555 1 20 C-1.31 22.31 -3.62 24.62 -6 27 C-6.98039406 23.07842377 -6.96862318 21.83266081 -6.07421875 18.0859375 C-5.85443359 17.16039063 -5.63464844 16.23484375 -5.40820312 15.28125 C-5.17037109 14.3221875 -4.93253906 13.363125 -4.6875 12.375 C-4.46126953 11.40820312 -4.23503906 10.44140625 -4.00195312 9.4453125 C-2.26108151 2.26108151 -2.26108151 2.26108151 0 0 Z " fill="#70BBDD" transform="translate(176,20)"/>
<path d="M0 0 C0.33 0 0.66 0 1 0 C1.05444001 3.00024947 1.0938836 5.99949039 1.125 9 C1.14175781 9.83917969 1.15851563 10.67835937 1.17578125 11.54296875 C1.21849117 17.05254877 0.55502007 21.71048292 -1 27 C-4.96 27.495 -4.96 27.495 -9 28 C-10.32 25.36 -11.64 22.72 -13 20 C-13.33 23.3 -13.66 26.6 -14 30 C-19.19689119 31.84974093 -19.19689119 31.84974093 -22 32 C-25 29.625 -25 29.625 -27 27 C-26.8453125 28.8871875 -26.8453125 28.8871875 -26.6875 30.8125 C-26.6875 33.01171875 -26.6875 33.01171875 -27 35 C-29.1875 37.125 -29.1875 37.125 -32 38 C-35.52345194 37.16108287 -37.6479831 35.72338799 -40 33 C-39.690625 33.7425 -39.38125 34.485 -39.0625 35.25 C-38.711875 36.1575 -38.36125 37.065 -38 38 C-37.690625 38.66 -37.38125 39.32 -37.0625 40 C-37 42 -37 42 -39.4375 44.75 C-40.283125 45.4925 -41.12875 46.235 -42 47 C-43.423125 46.505 -43.423125 46.505 -44.875 46 C-47.77062452 44.89840809 -47.77062452 44.89840809 -50 45 C-48.68 46.65 -47.36 48.3 -46 50 C-47.875 54.75 -47.875 54.75 -49 57 C-51.97 57 -54.94 57 -58 57 C-56.02 58.65 -54.04 60.3 -52 62 C-52.66 64.64 -53.32 67.28 -54 70 C-58.455 70.495 -58.455 70.495 -63 71 C-60.69 72.32 -58.38 73.64 -56 75 C-56.33 77.64 -56.66 80.28 -57 83 C-63.15502282 84.80946273 -68.60537019 85.25269614 -75 85.125 C-76.30517578 85.11146484 -76.30517578 85.11146484 -77.63671875 85.09765625 C-79.7579342 85.07434619 -81.87900562 85.03848579 -84 85 C-81.26410731 83.52418968 -78.78140021 82.60076043 -75.7421875 81.96484375 C-74.95199219 81.79533203 -74.16179687 81.62582031 -73.34765625 81.45117188 C-72.53167969 81.28166016 -71.71570313 81.11214844 -70.875 80.9375 C-69.24689717 80.59480856 -67.61926682 80.24986233 -65.9921875 79.90234375 C-65.27401855 79.75273193 -64.55584961 79.60312012 -63.81591797 79.44897461 C-61.9170681 79.04997721 -61.9170681 79.04997721 -60 78 C-61.16917969 77.45730469 -62.33835937 76.91460937 -63.54296875 76.35546875 C-65.09121237 75.63295506 -66.63938576 74.91029087 -68.1875 74.1875 C-68.95642578 73.83107422 -69.72535156 73.47464844 -70.51757812 73.10742188 C-74.46928804 71.25876788 -78.36155307 69.42806178 -82 67 C-82 66.67 -82 66.34 -82 66 C-73.42 65.67 -64.84 65.34 -56 65 C-61.08337972 60.89928531 -61.08337972 60.89928531 -66.17089844 56.80371094 C-69.61835938 54.01274381 -72.95421136 51.23815424 -76 48 C-75.46375 48.10957031 -74.9275 48.21914062 -74.375 48.33203125 C-66.26577686 49.97254843 -58.13362385 51.48629829 -50 53 C-51.7280375 50.79077517 -53.45739512 48.58260494 -55.1875 46.375 C-55.67025391 45.75753906 -56.15300781 45.14007813 -56.65039062 44.50390625 C-59.70241642 40.61206127 -62.81542961 36.78422441 -66 33 C-65.67 32.34 -65.34 31.68 -65 31 C-57 35 -49 39 -41 43 C-46.94 31.12 -46.94 31.12 -53 19 C-49.36578303 19 -48.76674119 19.72955069 -46.05859375 22.02734375 C-45.31029297 22.65447266 -44.56199219 23.28160156 -43.79101562 23.92773438 C-43.01435547 24.59095703 -42.23769531 25.25417969 -41.4375 25.9375 C-39.89583757 27.23982921 -38.35292813 28.54068411 -36.80859375 29.83984375 C-36.12595459 30.42113037 -35.44331543 31.00241699 -34.73999023 31.60131836 C-33.04232835 33.06709266 -33.04232835 33.06709266 -31 34 C-31.15670166 33.35450195 -31.31340332 32.70900391 -31.47485352 32.04394531 C-32.18027369 29.11483221 -32.87151767 26.182551 -33.5625 23.25 C-33.9327832 21.72632813 -33.9327832 21.72632813 -34.31054688 20.171875 C-34.53935547 19.1921875 -34.76816406 18.2125 -35.00390625 17.203125 C-35.21861572 16.30239258 -35.4333252 15.40166016 -35.65454102 14.47363281 C-36.00600309 11.95701536 -35.80151737 10.38749855 -35 8 C-32.7060326 10.76893571 -30.41522881 13.54047158 -28.125 16.3125 C-27.14853516 17.49102539 -27.14853516 17.49102539 -26.15234375 18.69335938 C-25.52714844 19.45068359 -24.90195313 20.20800781 -24.2578125 20.98828125 C-23.6817627 21.68477783 -23.10571289 22.38127441 -22.51220703 23.09887695 C-21 25 -21 25 -19 28 C-18.67 19.42 -18.34 10.84 -18 2 C-15.25775653 3.37112174 -14.90721223 4.92943022 -13.6171875 7.69140625 C-13.17246094 8.63564453 -12.72773437 9.57988281 -12.26953125 10.55273438 C-11.80933594 11.54595703 -11.34914063 12.53917969 -10.875 13.5625 C-10.40707031 14.55958984 -9.93914062 15.55667969 -9.45703125 16.58398438 C-8.29910326 19.05344305 -7.14704781 21.52547345 -6 24 C-3.79527971 18.51598987 -2.29847655 13.31887803 -1.3125 7.5 C-1.11817383 6.40945312 -1.11817383 6.40945312 -0.91992188 5.296875 C-0.60650262 3.53244068 -0.3022569 1.76638073 0 0 Z " fill="#41210A" transform="translate(123,39)"/>
<path d="M0 0 C6.09626909 0.67030736 12.00922254 1.76035713 18 3.0625 C18.87011719 3.24876953 19.74023438 3.43503906 20.63671875 3.62695312 C22.75846252 4.0816125 24.87932571 4.54037805 27 5 C27 5.66 27 6.32 27 7 C24.03 7.99 21.06 8.98 18 10 C19.58272601 11.58272601 21.38034003 11.34735747 23.5625 11.5625 C24.38878906 11.64628906 25.21507813 11.73007813 26.06640625 11.81640625 C26.70449219 11.87699219 27.34257813 11.93757812 28 12 C25.74764161 14.50437051 23.59789102 15.85064107 20.55078125 17.26171875 C19.78677002 17.61967529 19.02275879 17.97763184 18.2355957 18.34643555 C17.27097412 18.78898682 16.30635254 19.23153809 15.3125 19.6875 C12.239375 21.110625 9.16625 22.53375 6 24 C17.88 24.33 29.76 24.66 42 25 C38.63167822 28.36832178 35.48073353 31.348654 31.8125 34.3125 C30.85988281 35.08335937 29.90726563 35.85421875 28.92578125 36.6484375 C27.47751953 37.81246094 27.47751953 37.81246094 26 39 C25.06542969 39.75539062 24.13085938 40.51078125 23.16796875 41.2890625 C13.59238636 49 13.59238636 49 10 49 C3.40954059 34.10556172 -1.12228309 18.43484793 -1 2 C-0.67 1.34 -0.34 0.68 0 0 Z " fill="#70BBDD" transform="translate(8,125)"/>
<path d="M0 0 C8.58 0 17.16 0 26 0 C24.26537228 12.14239405 21.10306482 21.40188047 15 32 C14.360625 33.11503906 13.72125 34.23007813 13.0625 35.37890625 C8.26238579 43.3135778 8.26238579 43.3135778 4 45 C-1.99265568 38.54915334 -7.73111759 32.06588535 -13 25 C-12.67 24.34 -12.34 23.68 -12 23 C-8.7 23.99 -5.4 24.98 -2 26 C-3.98 23.69 -5.96 21.38 -8 19 C-1.99088939 18.58075973 3.28878438 19.88183422 9.109375 21.34375 C11.99356191 22.11069663 11.99356191 22.11069663 15 22 C14.49025635 21.58637207 13.9805127 21.17274414 13.45532227 20.74658203 C11.1547181 18.87637282 8.85857307 17.00076872 6.5625 15.125 C5.76005859 14.47402344 4.95761719 13.82304687 4.13085938 13.15234375 C3.36708984 12.52714844 2.60332031 11.90195313 1.81640625 11.2578125 C1.10943604 10.6817627 0.40246582 10.10571289 -0.32592773 9.51220703 C-2 8 -2 8 -3 6 C0.3 6 3.6 6 7 6 C5.845 5.195625 4.69 4.39125 3.5 3.5625 C2.31346106 2.73616038 1.1411908 1.88791631 0 1 C0 0.67 0 0.34 0 0 Z " fill="#70BBDE" transform="translate(211,151)"/>
<path d="M0 0 C1.8461867 2.76928005 2.41196197 4.13698806 3.0703125 7.2734375 C3.24433594 8.0984375 3.41835937 8.9234375 3.59765625 9.7734375 C3.77167969 10.63195313 3.94570312 11.49046875 4.125 12.375 C4.30675781 13.22578125 4.48851562 14.0765625 4.67578125 14.953125 C5.51789399 19.01806019 6.25778745 22.8238433 6 27 C6.66 27 7.32 27 8 27 C8.37125 25.52466797 8.37125 25.52466797 8.75 24.01953125 C10.00107614 19.64627125 11.93390483 15.72611719 14 11.6875 C14.35578125 10.97271484 14.7115625 10.25792969 15.078125 9.52148438 C16.51107502 6.68499189 17.73807348 4.26192652 20 2 C20.33 10.91 20.66 19.82 21 29 C25.10151889 23.58800059 25.10151889 23.58800059 29.19628906 18.17089844 C31.94787841 14.55633396 34.6457408 11.08857531 38 8 C37.32969264 14.09626909 36.23964287 20.00922254 34.9375 26 C34.75123047 26.87011719 34.56496094 27.74023438 34.37304688 28.63671875 C33.9183875 30.75846252 33.45962195 32.87932571 33 35 C33.45850342 34.62190186 33.91700684 34.24380371 34.3894043 33.85424805 C36.48597865 32.12857555 38.5866869 30.40800925 40.6875 28.6875 C41.7693457 27.79514648 41.7693457 27.79514648 42.87304688 26.88476562 C46.4501492 23.96101532 49.92899971 21.22419542 54 19 C52.33913088 24.56664924 49.88928264 29.65786353 47.375 34.875 C46.95476562 35.75414062 46.53453125 36.63328125 46.1015625 37.5390625 C45.0708308 39.69422878 44.03690574 41.84779922 43 44 C44.05058594 43.46890625 45.10117188 42.9378125 46.18359375 42.390625 C53.38937954 38.76028149 60.58070898 35.17969615 68 32 C65.78559473 36.81931072 62.42793961 40.56877754 59.0625 44.625 C58.42892578 45.40101562 57.79535156 46.17703125 57.14257812 46.9765625 C56.52962891 47.7190625 55.91667969 48.4615625 55.28515625 49.2265625 C54.72707275 49.90283691 54.16898926 50.57911133 53.59399414 51.27587891 C52 53 52 53 49 55 C48.34765625 53.234375 48.34765625 53.234375 48 51 C49.3576151 48.38060145 51.16179949 46.33137626 53 44 C50.03 45.32 47.06 46.64 44 48 C41.4375 45.8125 41.4375 45.8125 39 43 C39.125 40.375 39.125 40.375 40 38 C40.33 37.01 40.66 36.02 41 35 C39.88625 36.0209375 39.88625 36.0209375 38.75 37.0625 C36 39 36 39 33.9375 38.875 C31.93341626 37.96992992 29.96682556 36.98341278 28 36 C28.33 32.7 28.66 29.4 29 26 C27.35 28.31 25.7 30.62 24 33 C21.33333333 32.33333333 18.66666667 31.66666667 16 31 C15.67 27.7 15.34 24.4 15 21 C13.68 23.64 12.36 26.28 11 29 C8.36 29 5.72 29 3 29 C-0.56326709 19.37069489 -0.2999285 10.09759268 0 0 Z " fill="#224959" transform="translate(124,38)"/>
<path d="M0 0 C2.04404545 8.7784452 2.21767642 17.03898756 2 26 C0.02 26.33 -1.96 26.66 -4 27 C-3.34 26.34 -2.68 25.68 -2 25 C-2.65597168 24.85900879 -3.31194336 24.71801758 -3.98779297 24.57275391 C-6.95191508 23.93116676 -9.91342405 23.27823484 -12.875 22.625 C-14.42380859 22.29242188 -14.42380859 22.29242188 -16.00390625 21.953125 C-16.99003906 21.73398438 -17.97617188 21.51484375 -18.9921875 21.2890625 C-19.90339355 21.09006348 -20.81459961 20.89106445 -21.75341797 20.68603516 C-24 20 -24 20 -26 18 C-22.04 16.515 -22.04 16.515 -18 15 C-19.96822886 13.03177114 -23.34808709 13.33751619 -26 13 C-26 12.34 -26 11.68 -26 11 C-22.2337275 9.15718644 -18.46127425 7.32739574 -14.6875 5.5 C-13.61564453 4.97535156 -12.54378906 4.45070313 -11.43945312 3.91015625 C-10.41142578 3.41386719 -9.38339844 2.91757813 -8.32421875 2.40625 C-7.37635498 1.94541016 -6.42849121 1.48457031 -5.4519043 1.00976562 C-3 0 -3 0 0 0 Z " fill="#6FBADB" transform="translate(239,99)"/>
<path d="M0 0 C4.16131375 0.83226275 6.47157725 1.57685411 10.08203125 3.50390625 C11.01337891 3.99697266 11.94472656 4.49003906 12.90429688 4.99804688 C13.86400391 5.51431641 14.82371094 6.03058594 15.8125 6.5625 C16.79154297 7.08263672 17.77058594 7.60277344 18.77929688 8.13867188 C21.1893066 9.42009168 23.59600219 10.70734711 26 12 C24.83326105 15.23402246 23.74713379 17.63371198 21.3203125 20.078125 C20.80339844 20.59890625 20.28648437 21.1196875 19.75390625 21.65625 C19.21636719 22.1821875 18.67882812 22.708125 18.125 23.25 C17.59519531 23.79140625 17.06539062 24.3328125 16.51953125 24.890625 C13.75609487 27.6334899 11.82323109 29.2824374 8 30 C6.37431783 26.91702588 4.74957416 23.83355811 3.125 20.75 C2.43470703 19.44095703 2.43470703 19.44095703 1.73046875 18.10546875 C1.28574219 17.26113281 0.84101563 16.41679687 0.3828125 15.546875 C-0.02565918 14.77182617 -0.43413086 13.99677734 -0.85498047 13.19824219 C-1.23283691 12.47282227 -1.61069336 11.74740234 -2 11 C-2.39977051 10.3080957 -2.79954102 9.61619141 -3.21142578 8.90332031 C-4 7 -4 7 -3 4 C1.455 6.97 1.455 6.97 6 10 C4.02 6.7 2.04 3.4 0 0 Z " fill="#6FBADC" transform="translate(189,185)"/>
<path d="M0 0 C1.3303125 0.13341797 1.3303125 0.13341797 2.6875 0.26953125 C3.615625 0.36878906 4.54375 0.46804687 5.5 0.5703125 C6.8921875 0.70759766 6.8921875 0.70759766 8.3125 0.84765625 C15.23305861 1.5618418 15.23305861 1.5618418 17.5 2.6953125 C16.95293085 8.5595099 14.59048177 13.28173439 12.0625 18.5078125 C11.65451172 19.37857422 11.24652344 20.24933594 10.82617188 21.14648438 C7.75913658 27.56574421 7.75913658 27.56574421 5.5 28.6953125 C5.43941406 28.05722656 5.37882813 27.41914062 5.31640625 26.76171875 C5.23261719 25.93542969 5.14882812 25.10914062 5.0625 24.2578125 C4.98128906 23.43410156 4.90007812 22.61039063 4.81640625 21.76171875 C4.71069185 19.70869225 4.71069185 19.70869225 3.5 18.6953125 C2.51 21.6653125 1.52 24.6353125 0.5 27.6953125 C-0.16 27.6953125 -0.82 27.6953125 -1.5 27.6953125 C-2.34015157 23.94680647 -3.17093219 20.19628418 -4 16.4453125 C-4.23847656 15.38183594 -4.47695312 14.31835938 -4.72265625 13.22265625 C-4.94824219 12.19785156 -5.17382812 11.17304688 -5.40625 10.1171875 C-5.61572266 9.17456055 -5.82519531 8.23193359 -6.04101562 7.26074219 C-6.5 4.6953125 -6.5 4.6953125 -6.5 0.6953125 C-4.01795311 -0.54571095 -2.7462155 -0.27864093 0 0 Z " fill="#70BBDD" transform="translate(131.5,7.3046875)"/>
<path d="M0 0 C8.88240886 2.5378311 16.82618207 6.77769651 25 11 C25 11.66 25 12.32 25 13 C23.2984375 13.2165625 23.2984375 13.2165625 21.5625 13.4375 C18.19222799 13.61171478 18.19222799 13.61171478 17 15 C19.64 15.99 22.28 16.98 25 18 C22.1275048 20.8724952 18.7175227 21.24278816 14.875 22.125 C14.14023437 22.30675781 13.40546875 22.48851563 12.6484375 22.67578125 C7.65105572 23.84594283 3.13014806 24.17449483 -2 24 C-3.25397167 19.49629895 -2.76359051 15.42806742 -2.125 10.875 C-2.03347656 10.15957031 -1.94195312 9.44414063 -1.84765625 8.70703125 C-1.44562169 5.67761587 -0.96864924 2.90594773 0 0 Z " fill="#895E36" transform="translate(10,99)"/>
<path d="M0 0 C5.30211747 1.58646034 9.06742954 5.03207737 13.25 8.5 C13.9821875 9.09425781 14.714375 9.68851563 15.46875 10.30078125 C20.86305436 14.72610871 20.86305436 14.72610871 22 17 C18.7 17 15.4 17 12 17 C13.98 18.2065625 13.98 18.2065625 16 19.4375 C17.35218996 20.26149076 18.69107565 21.10887963 20 22 C20 22.33 20 22.66 20 23 C10.76 23 1.52 23 -8 23 C-7.26320628 17.10565027 -6.65497544 13.40275705 -4.5625 8.125 C-4.13066406 7.01382813 -3.69882813 5.90265625 -3.25390625 4.7578125 C-2 2 -2 2 0 0 Z " fill="#895F36" transform="translate(19,75)"/>
<path d="M0 0 C0.66 0 1.32 0 2 0 C2.33 2.97 2.66 5.94 3 9 C4.32 6.03 5.64 3.06 7 0 C9.17258443 2.17258443 9.41834376 2.98562502 10.0703125 5.88671875 C10.24433594 6.66080078 10.41835937 7.43488281 10.59765625 8.23242188 C10.77167969 9.04259766 10.94570312 9.85277344 11.125 10.6875 C11.30675781 11.47833984 11.48851563 12.26917969 11.67578125 13.08398438 C12.71880203 17.83247371 13.19515244 22.1407043 13 27 C5.26291674 27.12152487 -2.307359 26.84800767 -10 26 C-11.28587188 22.14238437 -10.45307071 21.25849212 -8.69140625 17.67578125 C-8.19189453 16.64775391 -7.69238281 15.61972656 -7.17773438 14.56054688 C-6.64470703 13.48869141 -6.11167969 12.41683594 -5.5625 11.3125 C-5.03333984 10.22904297 -4.50417969 9.14558594 -3.95898438 8.02929688 C-2.64806995 5.34841784 -1.32812905 2.67238154 0 0 Z " fill="#70BCDE" transform="translate(110,213)"/>
<path d="M0 0 C8.58 0 17.16 0 26 0 C22 4 22 4 20 5 C22.97 5.33 25.94 5.66 29 6 C25.31354632 9.76898623 21.49528155 13.31090614 17.5 16.75 C16.94441406 17.24371094 16.38882812 17.73742187 15.81640625 18.24609375 C12.62819588 20.98420383 10.24005053 22.65193615 6 23 C3.81124001 19.22389606 2.89606304 15.13898531 1.875 10.9375 C1.69324219 10.21755859 1.51148438 9.49761719 1.32421875 8.75585938 C0.58563412 5.76542463 0 3.09200343 0 0 Z " fill="#71BDE0" transform="translate(12,151)"/>
<path d="M0 0 C6.01102315 1.20220463 11.3850276 2.29309391 17.125 4.125 C18.24132812 4.47820313 19.35765625 4.83140625 20.5078125 5.1953125 C21.33023438 5.46085937 22.15265625 5.72640625 23 6 C22.40954676 8.99008448 21.56283521 10.89566858 19.671875 13.27734375 C19.20136719 13.87353516 18.73085937 14.46972656 18.24609375 15.08398438 C17.75238281 15.69564453 17.25867188 16.30730469 16.75 16.9375 C16.03263672 17.84918945 16.03263672 17.84918945 15.30078125 18.77929688 C12.39734445 22.42629676 9.3598336 25.76891915 6 29 C5.67 26.03 5.34 23.06 5 20 C4.360625 20.99 3.72125 21.98 3.0625 23 C2.381875 23.99 1.70125 24.98 1 26 C0.67 26 0.34 26 0 26 C0 17.42 0 8.84 0 0 Z " fill="#71BDE0" transform="translate(151,12)"/>
<path d="M0 0 C0.33 0 0.66 0 1 0 C0.66815916 9.83908078 -1.2136397 18.63005352 -4 28 C-5.62610337 23.77213125 -4.65453403 22.96360209 -3 18 C-15.375 18.495 -15.375 18.495 -28 19 C-25.36 20.65 -22.72 22.3 -20 24 C-20 24.33 -20 24.66 -20 25 C-31.14244651 26.07008252 -31.14244651 26.07008252 -35.64453125 23.4765625 C-37.60669476 21.74420192 -39.3730481 20.04966448 -41 18 C-41 17.67 -41 17.34 -41 17 C-28.13 16.67 -15.26 16.34 -2 16 C-1.505 9.565 -1.505 9.565 -1 3 C-0.67 2.01 -0.34 1.02 0 0 Z " fill="#528EA5" transform="translate(240,133)"/>
<path d="M0 0 C11.25 2.25 11.25 2.25 16.125 4.125 C17.52105469 4.65480469 17.52105469 4.65480469 18.9453125 5.1953125 C19.62335938 5.46085938 20.30140625 5.72640625 21 6 C16.82803496 7.39065501 13.81517787 5.90071706 9.8125 4.5625 C7.234375 3.716875 4.65625 2.87125 2 2 C2.33 10.25 2.66 18.5 3 27 C4.32 25.02 5.64 23.04 7 21 C7.33 21 7.66 21 8 21 C10.02117175 30.23964227 10.02117175 30.23964227 7.54296875 34.51171875 C5.78713834 36.5035671 4.05372996 38.31748414 2 40 C1.67 40 1.34 40 1 40 C0.67 26.8 0.34 13.6 0 0 Z " fill="#508CA2" transform="translate(149,10)"/>
<path d="M0 0 C19.8 0.495 19.8 0.495 40 1 C32.02964119 8.97035881 32.02964119 8.97035881 28.421875 9.07421875 C27.09929688 8.88279297 27.09929688 8.88279297 25.75 8.6875 C24.41195312 8.50767578 24.41195312 8.50767578 23.046875 8.32421875 C22.37140625 8.21722656 21.6959375 8.11023438 21 8 C24.75 4.125 24.75 4.125 27 3 C18.75 2.67 10.5 2.34 2 2 C2.680625 4.083125 3.36125 6.16625 4.0625 8.3125 C6.125 14.625 6.125 14.625 5 18 C4.16320723 15.37605694 3.33043058 12.75095616 2.5 10.125 C2.26152344 9.37863281 2.02304688 8.63226563 1.77734375 7.86328125 C0 2.2265625 0 2.2265625 0 0 Z " fill="#508CA2" transform="translate(10,149)"/>
<path d="M0 0 C7.89239598 7.89239598 7.89239598 7.89239598 8.29296875 12.015625 C8.25816406 13.08296875 8.22335938 14.1503125 8.1875 15.25 C8.16042969 16.32765625 8.13335937 17.4053125 8.10546875 18.515625 C8.07066406 19.33546875 8.03585938 20.1553125 8 21 C5.87961365 18.38485683 3.86908256 15.80362384 2 13 C1.67 21.25 1.34 29.5 1 38 C2.32 38.33 3.64 38.66 5 39 C2.03 39.495 2.03 39.495 -1 40 C-0.67 26.8 -0.34 13.6 0 0 Z " fill="#528EA4" transform="translate(150,199)"/>
<path d="M0 0 C-1.65 0.66 -3.3 1.32 -5 2 C-5.02505615 2.80107178 -5.0501123 3.60214355 -5.07592773 4.42749023 C-5.19279735 8.09762026 -5.31510745 11.76755017 -5.4375 15.4375 C-5.47681641 16.69755859 -5.51613281 17.95761719 -5.55664062 19.25585938 C-5.78178694 25.88901607 -6.14758434 32.4170589 -7 39 C-13.91520953 32.26676967 -13.91520953 32.26676967 -14.1953125 28.08203125 C-14.17210938 27.00308594 -14.14890625 25.92414062 -14.125 24.8125 C-14.10695313 23.72582031 -14.08890625 22.63914062 -14.0703125 21.51953125 C-14.04710938 20.68808594 -14.02390625 19.85664063 -14 19 C-11.87961365 21.61514317 -9.86908256 24.19637616 -8 27 C-8 18.09 -8 9.18 -8 0 C-4.29847322 -0.92538169 -3.36541838 -1.08174162 0 0 Z " fill="#744C25" transform="translate(105,10)"/>
<path d="M0 0 C1.23320758 7.95885231 1.33912148 15.96384379 1.5625 24 C1.60577365 25.45704157 1.6493905 26.91407299 1.69335938 28.37109375 C1.79953302 31.91395412 1.90105111 35.45692963 2 39 C0.02 38.67 -1.96 38.34 -4 38 C-2.02 37.505 -2.02 37.505 0 37 C-0.33 28.42 -0.66 19.84 -1 11 C-2.65 13.64 -4.3 16.28 -6 19 C-6.33 19 -6.66 19 -7 19 C-6.78950961 6.10268003 -6.78950961 6.10268003 -3.5 2.1875 C-1 0 -1 0 0 0 Z " fill="#5490A8" transform="translate(98,200)"/>
<path d="M0 0 C-2.5307893 2.79718817 -4.53024595 3.91814757 -8 6 C4.87 6.495 4.87 6.495 18 7 C18.33 5.68 18.66 4.36 19 3 C19 4.65 19 6.3 19 8 C15.72113215 9.09295595 13.52313112 9.04584155 10.08203125 8.9140625 C8.90962891 8.87023437 7.73722656 8.82640625 6.52929688 8.78125 C5.30275391 8.7296875 4.07621094 8.678125 2.8125 8.625 C1.00168945 8.55925781 1.00168945 8.55925781 -0.84570312 8.4921875 C-6.95203659 8.25180696 -12.95274496 7.88863773 -19 7 C-12.67586582 0.67586582 -9.16533448 -0.22354474 0 0 Z " fill="#5490A8" transform="translate(219,91)"/>
<path d="M0 0 C11.29267432 -0.91699912 11.29267432 -0.91699912 15.421875 1.30078125 C17.13144757 2.78076246 18.63023958 4.20187814 20 6 C20 6.33 20 6.66 20 7 C12.28847276 8.05648755 4.71334179 8.11624053 -3.0625 8.0625 C-4.30966797 8.05798828 -5.55683594 8.05347656 -6.84179688 8.04882812 C-9.89458221 8.03713163 -12.94726498 8.02074086 -16 8 C-16 7.67 -16 7.34 -16 7 C-8.08 6.67 -0.16 6.34 8 6 C5.36 4.35 2.72 2.7 0 1 C0 0.67 0 0.34 0 0 Z " fill="#754C25" transform="translate(29,91)"/>
<path d="M0 0 C7.86069652 4.71641791 7.86069652 4.71641791 9.75 10.5 C10.01296875 11.2734375 10.2759375 12.046875 10.546875 12.84375 C11 15 11 15 10 18 C8.02 16.02 6.04 14.04 4 12 C3.01 13.485 3.01 13.485 2 15 C1.34 10.05 0.68 5.1 0 0 Z " fill="#5390A7" transform="translate(167,192)"/>
<path d="M0 0 C7.425 0.99 7.425 0.99 15 2 C14.01 2.66 13.02 3.32 12 4 C13.98 6.31 15.96 8.62 18 11 C15.9937811 10.70640699 13.99488234 10.36270588 12 10 C10.2365625 9.690625 10.2365625 9.690625 8.4375 9.375 C4.01283107 7.60513243 2.23657343 5.11240921 0 1 C0 0.67 0 0.34 0 0 Z " fill="#5390A7" transform="translate(192,167)"/>
<path d="M0 0 C2.3189679 1.1165401 4.45488056 2.29242321 6.625 3.6875 C7.40875 4.120625 8.1925 4.55375 9 5 C9.66 4.67 10.32 4.34 11 4 C11.67119549 5.4562545 12.33681807 6.91507867 13 8.375 C13.556875 9.59316406 13.556875 9.59316406 14.125 10.8359375 C15 13 15 13 15 15 C13.53932801 14.54917531 12.08151968 14.08906463 10.625 13.625 C9.40683594 13.24214844 9.40683594 13.24214844 8.1640625 12.8515625 C6 12 6 12 4 10 C3.30741771 8.00882592 2.64252365 6.0078864 2 4 C1.36184656 2.65278717 0.70674629 1.31252882 0 0 Z " fill="#744C24" transform="translate(53,53)"/>
<path d="M0 0 C3.14627396 3.86133623 5.15460191 7.01261733 4.7578125 12.11328125 C4.44457031 13.69689453 4.44457031 13.69689453 4.125 15.3125 C3.92132813 16.38113281 3.71765625 17.44976562 3.5078125 18.55078125 C3.25644531 19.76314453 3.25644531 19.76314453 3 21 C1 20 1 20 0.3671875 18.15234375 C0.20476562 17.42144531 0.04234375 16.69054687 -0.125 15.9375 C-0.37636719 14.83728516 -0.37636719 14.83728516 -0.6328125 13.71484375 C-0.75398437 13.14894531 -0.87515625 12.58304688 -1 12 C-1.66 12 -2.32 12 -3 12 C-2.69106068 10.3743193 -2.3777305 8.74947252 -2.0625 7.125 C-1.88847656 6.22007812 -1.71445313 5.31515625 -1.53515625 4.3828125 C-1 2 -1 2 0 0 Z " fill="#528EA5" transform="translate(133,203)"/>
<path d="M0 0 C3.3 0.99 6.6 1.98 10 3 C8.68 3.99 7.36 4.98 6 6 C5.39671875 6.58394531 4.7934375 7.16789063 4.171875 7.76953125 C0.89952901 9.62346828 -1.20143521 8.64561249 -4.75 7.6875 C-5.92046875 7.38199219 -7.0909375 7.07648438 -8.296875 6.76171875 C-9.18890625 6.51035156 -10.0809375 6.25898438 -11 6 C-8.6870518 3.6870518 -7.52095125 3.50419025 -4.375 2.875 C-3.55773437 2.70742187 -2.74046875 2.53984375 -1.8984375 2.3671875 C-1.27195312 2.24601563 -0.64546875 2.12484375 0 2 C0 1.34 0 0.68 0 0 Z " fill="#508BA1" transform="translate(35,130)"/>
<path d="M0 0 C1.90382301 2.85573451 2.2957965 3.78112138 2.625 7 C2.69976562 7.680625 2.77453125 8.36125 2.8515625 9.0625 C3.2569262 14.35356301 1.69178421 16.5417324 -1 21 C-3.95183101 18.04816899 -4.08663988 15.04488053 -5 11 C-4.34 11 -3.68 11 -3 11 C-2.86722656 10.37351562 -2.73445312 9.74703125 -2.59765625 9.1015625 C-2.33275391 7.87566406 -2.33275391 7.87566406 -2.0625 6.625 C-1.88847656 5.81289063 -1.71445313 5.00078125 -1.53515625 4.1640625 C-1 2 -1 2 0 0 Z " fill="#528FA6" transform="translate(135,24)"/>
<path d="M0 0 C3.36591866 1.44253657 5.51047079 3.33264727 8 6 C8.66 5.67 9.32 5.34 10 5 C10.66 9.29 11.32 13.58 12 18 C3.25917927 12.82937365 3.25917927 12.82937365 2.0625 9 C2.041875 8.01 2.02125 7.02 2 6 C1.36694179 3.98910922 0.70905938 1.98536627 0 0 Z " fill="#754D25" transform="translate(70,39)"/>
<path d="M0 0 C1.8253125 0.7115625 1.8253125 0.7115625 3.6875 1.4375 C6.18557748 2.40506522 7.99582662 2.99970883 10.6875 3.1875 C14.71572347 4.60282176 15.99053896 8.38297013 18 12 C13.71 11.34 9.42 10.68 5 10 C5 9.01 5 8.02 5 7 C3.3540349 5.31288577 1.68762851 3.6454378 0 2 C0 1.34 0 0.68 0 0 Z " fill="#754D25" transform="translate(39,70)"/>
<path d="M0 0 C0 0.66 0 1.32 0 2 C2.97 2.99 5.94 3.98 9 5 C9 5.33 9 5.66 9 6 C-3.55734812 8.83306025 -3.55734812 8.83306025 -8.8125 6.125 C-9.864375 5.42375 -10.91625 4.7225 -12 4 C-9.82844492 1.82844492 -8.90426105 1.54767811 -6 0.875 C-5.29875 0.70742187 -4.5975 0.53984375 -3.875 0.3671875 C-2 0 -2 0 0 0 Z " fill="#528EA4" transform="translate(215,130)"/>
<path d="M0 0 C-1.46362777 2.84306457 -2.97886326 5.51447675 -5 8 C-8.0625 8.875 -8.0625 8.875 -11 9 C-11.721875 9.37125 -12.44375 9.7425 -13.1875 10.125 C-15 11 -15 11 -18 10 C-17.4946875 9.51789063 -16.989375 9.03578125 -16.46875 8.5390625 C-15.8190625 7.90742188 -15.169375 7.27578125 -14.5 6.625 C-13.8503125 5.99851563 -13.200625 5.37203125 -12.53125 4.7265625 C-10.77882569 3.13524093 -10.77882569 3.13524093 -11 1 C-7.27569643 0.30710631 -3.78916254 -0.11144596 0 0 Z " fill="#4F8AA0" transform="translate(57,167)"/>
<path d="M0 0 C1.49269127 4.4780738 -0.13800736 7.78762321 -2 12 C-4.37556521 14.98861429 -6.61282853 16.36652065 -10 18 C-9.94004678 16.20739868 -9.8512759 14.41574205 -9.75 12.625 C-9.70359375 11.62726562 -9.6571875 10.62953125 -9.609375 9.6015625 C-9 7 -9 7 -7.125 5.8125 C-6.42375 5.544375 -5.7225 5.27625 -5 5 C-3.29503463 3.37253306 -1.62102968 1.71108689 0 0 Z " fill="#4F8AA0" transform="translate(177,39)"/>
<path d="M0 0 C2.38874163 2.38874163 2.74174549 4.25131639 3.11328125 7.55859375 C2.89185859 12.33063388 0.86173329 16.65329223 -1 21 C-3 19 -3 19 -3.1953125 16.8359375 C-3.17210938 16.02382812 -3.14890625 15.21171875 -3.125 14.375 C-3.10695313 13.55773437 -3.08890625 12.74046875 -3.0703125 11.8984375 C-3.04710938 11.27195313 -3.02390625 10.64546875 -3 10 C-3.66 9.67 -4.32 9.34 -5 9 C-3.35 6.03 -1.7 3.06 0 0 Z " fill="#518CA2" transform="translate(115,203)"/>
<path d="M0 0 C1.66666667 0.66666667 3.33333333 1.33333333 5 2 C6.3303125 2.4021875 6.3303125 2.4021875 7.6875 2.8125 C10.74042263 4.38021703 10.93680091 5.81040272 12 9 C12.99387334 10.33790641 13.9926892 11.67218122 15 13 C15 13.66 15 14.32 15 15 C7.40640312 12.17952116 3.96801968 9.0342167 0 2 C0 1.34 0 0.68 0 0 Z " fill="#518CA3" transform="translate(180,180)"/>
<path d="M0 0 C-2.15391705 7.52995392 -2.15391705 7.52995392 -5.25 9.25 C-6.1575 9.4975 -7.065 9.745 -8 10 C-10.38147038 11.2575748 -12.67781614 12.63400949 -15 14 C-13.6302836 10.00499382 -11.74277578 7.19990508 -9 4 C-9.33 3.34 -9.66 2.68 -10 2 C-3.375 -1.125 -3.375 -1.125 0 0 Z " fill="#518DA3" transform="translate(68,182)"/>
<path d="M0 0 C0.66 0.33 1.32 0.66 2 1 C1.09648559 2.63234937 0.1766431 4.25566824 -0.75 5.875 C-1.26046875 6.77992187 -1.7709375 7.68484375 -2.296875 8.6171875 C-4.09092918 11.12721742 -5.1665578 11.92059345 -8 13 C-9.36125 13.556875 -9.36125 13.556875 -10.75 14.125 C-11.4925 14.41375 -12.235 14.7025 -13 15 C-12.39159077 11.45094618 -11.68842953 8.19912963 -10 5 C-8.25 4.4375 -8.25 4.4375 -6 4 C-3.97048465 2.71203834 -1.96498322 1.38442 0 0 Z " fill="#518EA4" transform="translate(194,53)"/>
<path d="M0 0 C-0.66 4.62 -1.32 9.24 -2 14 C-2.33 13.01 -2.66 12.02 -3 11 C-5.31 12.65 -7.62 14.3 -10 16 C-8.89045121 5.07668345 -8.89045121 5.07668345 -5 1.8125 C-2 0 -2 0 0 0 Z " fill="#518DA3" transform="translate(82,192)"/>
<path d="M0 0 C3.63 1.65 7.26 3.3 11 5 C6.20591462 7.39704269 2.6193228 8.81447556 -2.67578125 7.16796875 C-5.15283551 6.17644632 -7.58445049 5.13244071 -10 4 C-6.3558226 1.5705484 -4.28758728 1.83820425 0 2 C0 1.34 0 0.68 0 0 Z " fill="#744C24" transform="translate(35,110)"/>
<path d="M0 0 C-1.65 1.98 -3.3 3.96 -5 6 C-4.01 6.33 -3.02 6.66 -2 7 C-6.62 7.66 -11.24 8.32 -16 9 C-12.24317295 1.4863459 -12.24317295 1.4863459 -9.1328125 0.26953125 C-5.51169754 -0.71864847 -3.64982946 -1.21660982 0 0 Z " fill="#518DA3" transform="translate(208,73)"/>
<path d="M0 0 C0.33 0.66 0.66 1.32 1 2 C2.0725 1.95875 3.145 1.9175 4.25 1.875 C7.77723487 1.9925745 9.061073 2.34847907 12 4 C4.20379023 7.19235662 -0.89256564 8.70247812 -9 6 C-6.32114278 3.12807199 -3.56170128 1.66212727 0 0 Z " fill="#508CA2" transform="translate(212,110)"/>
<path d="M0 0 C3.28013687 3.28013687 4.22076041 7.49481647 5 12 C4.69398369 14.9377566 3.98946829 17.18782696 3 20 C0.24074615 17.61700804 -0.94271056 15.48513927 -2 12 C-1.7578125 8.88671875 -1.7578125 8.88671875 -1.125 5.6875 C-0.92132813 4.61886719 -0.71765625 3.55023437 -0.5078125 2.44921875 C-0.34023437 1.64097656 -0.17265625 0.83273438 0 0 Z " fill="#744B23" transform="translate(113,25)"/>
<path d="M0 0 C0.33 0 0.66 0 1 0 C0.66815916 9.83908078 -1.2136397 18.63005352 -4 28 C-5.62610337 23.77213125 -4.65453403 22.96360209 -3 18 C-16.365 18.495 -16.365 18.495 -30 19 C-30.33 18.34 -30.66 17.68 -31 17 C-21.43 16.67 -11.86 16.34 -2 16 C-1.67 11.71 -1.34 7.42 -1 3 C-0.67 2.01 -0.34 1.02 0 0 Z " fill="#5E9DBA" transform="translate(240,133)"/>
<path d="M0 0 C11.25 2.25 11.25 2.25 16.125 4.125 C17.52105469 4.65480469 17.52105469 4.65480469 18.9453125 5.1953125 C19.62335938 5.46085938 20.30140625 5.72640625 21 6 C16.82803496 7.39065501 13.81517787 5.90071706 9.8125 4.5625 C7.234375 3.716875 4.65625 2.87125 2 2 C2.33 10.91 2.66 19.82 3 29 C2.34 29.33 1.68 29.66 1 30 C0.67 20.1 0.34 10.2 0 0 Z " fill="#5D9CB8" transform="translate(149,10)"/>
<path d="M0 0 C9.9 0.33 19.8 0.66 30 1 C28 3 28 3 25.38623047 3.13525391 C24.30744629 3.08288574 23.22866211 3.03051758 22.1171875 2.9765625 C20.95058594 2.925 19.78398437 2.8734375 18.58203125 2.8203125 C17.35871094 2.75585938 16.13539062 2.69140625 14.875 2.625 C13.64394531 2.56828125 12.41289062 2.5115625 11.14453125 2.453125 C8.09579194 2.31132317 5.04783612 2.15988027 2 2 C2.30035156 2.90363281 2.60070312 3.80726563 2.91015625 4.73828125 C3.29042969 5.91777344 3.67070312 7.09726563 4.0625 8.3125 C4.63677734 10.07013672 4.63677734 10.07013672 5.22265625 11.86328125 C6 15 6 15 5 18 C4.16320723 15.37605694 3.33043058 12.75095616 2.5 10.125 C2.26152344 9.37863281 2.02304688 8.63226563 1.77734375 7.86328125 C0 2.2265625 0 2.2265625 0 0 Z " fill="#60A1BE" transform="translate(10,149)"/>
<path d="M0 0 C0.66 0 1.32 0 2 0 C1.67 9.24 1.34 18.48 1 28 C2.32 28.33 3.64 28.66 5 29 C3.02 29.33 1.04 29.66 -1 30 C-0.67 20.1 -0.34 10.2 0 0 Z " fill="#60A2BF" transform="translate(150,209)"/>
<path d="M0 0 C0.66 0.33 1.32 0.66 2 1 C1.01 2.32 0.02 3.64 -1 5 C-0.0409375 5.433125 -0.0409375 5.433125 0.9375 5.875 C3 7 3 7 4 9 C0.18315774 7.44499019 -2.19195732 4.96404505 -5 2 C-2.625 0.9375 -2.625 0.9375 0 0 Z " fill="#5D9CB9" transform="translate(55,212)"/>
<path d="M0 0 C0.99 0.66 1.98 1.32 3 2 C2.34 2 1.68 2 1 2 C1 4.31 1 6.62 1 9 C-3.875 4.25 -3.875 4.25 -5 2 C-4.360625 1.855625 -3.72125 1.71125 -3.0625 1.5625 C-1.02454854 1.18992819 -1.02454854 1.18992819 0 0 Z " fill="#5995B0" transform="translate(36,193)"/>
<path d="M0 0 C0.66 0.33 1.32 0.66 2 1 C-2.75 6.75 -2.75 6.75 -5 9 C-5.99 8.67 -6.98 8.34 -8 8 C-5.36 5.36 -2.72 2.72 0 0 Z " fill="#5796AE" transform="translate(47,169)"/>
<path d="M0 0 C0.33 0.99 0.66 1.98 1 3 C-0.80238879 4.80238879 -2.54887809 6.16402532 -4.625 7.625 C-5.25664062 8.07101563 -5.88828125 8.51703125 -6.5390625 8.9765625 C-7.02117187 9.31429687 -7.50328125 9.65203125 -8 10 C-6.34908222 5.70761377 -3.26245434 3.1206085 0 0 Z " fill="#5796AE" transform="translate(177,39)"/>
<path d="M0 0 C0.33 0.66 0.66 1.32 1 2 C1.66 2.33 2.32 2.66 3 3 C0.36 4.98 -2.28 6.96 -5 9 C-3.7508258 5.54074837 -2.32472205 2.85306797 0 0 Z " fill="#76512D" transform="translate(33,50)"/>
<path d="M0 0 C0.66 0.33 1.32 0.66 2 1 C1.67 1.33 1.34 1.66 1 2 C2.65 2.33 4.3 2.66 6 3 C6 3.33 6 3.66 6 4 C4.741875 4.04125 3.48375 4.0825 2.1875 4.125 C1.47980469 4.14820313 0.77210937 4.17140625 0.04296875 4.1953125 C-2 4 -2 4 -5 2 C-2.625 0.9375 -2.625 0.9375 0 0 Z " fill="#5A9BB5" transform="translate(29,133)"/>
<path d="M0 0 C2 1.375 2 1.375 4 3 C4 3.66 4 4.32 4 5 C1.50935112 5.68707555 -0.37886292 6 -3 6 C-2 4 -1 2 0 0 Z " fill="#5F9FBC" transform="translate(214,50)"/>
<path d="M0 0 C0.93065133 2.60582371 1.14917407 3.64198224 0.0625 6.25 C-0.4634375 7.11625 -0.4634375 7.11625 -1 8 C-1.33 7.34 -1.66 6.68 -2 6 C-2.99 6.495 -2.99 6.495 -4 7 C-2.79618552 4.50638429 -1.54571278 2.31856917 0 0 Z " fill="#295262" transform="translate(161,46)"/>
<path d="M0 0 C2.31 1.65 4.62 3.3 7 5 C5 6 5 6 1 6 C0.67 4.02 0.34 2.04 0 0 Z " fill="#60A1BF" transform="translate(195,31)"/>
</svg>
